<?xml version="1.0" encoding="UTF-8"?>
<svg width="32" height="32" viewBox="0 0 32 32" fill="none" xmlns="http://www.w3.org/2000/svg">
  <!-- Background Circle -->
  <circle cx="16" cy="16" r="15" fill="#1A2027" />
  
  <!-- Outer Ring -->
  <circle cx="16" cy="16" r="13.5" stroke="#A39684" stroke-width="0.8" fill="none" />
  
  <!-- Middle Ring with Gradient -->
  <circle cx="16" cy="16" r="11" fill="url(#gradient)" />
  
  <!-- Inner Circle -->
  <circle cx="16" cy="16" r="8.5" fill="#2C353D" />
  
  <!-- Calendar Icon -->
  <rect x="11.5" y="10" width="9" height="9" rx="1" fill="#E5D6B9" />
  <rect x="11.5" y="10" width="9" height="2" rx="0.8" fill="#A39684" />
  
  <!-- Calendar Details -->
  <rect x="12.5" y="13" width="1.5" height="1.5" rx="0.3" fill="#2C353D" />
  <rect x="15.25" y="13" width="1.5" height="1.5" rx="0.3" fill="#2C353D" />
  <rect x="18" y="13" width="1.5" height="1.5" rx="0.3" fill="#2C353D" />
  <rect x="12.5" y="15.5" width="1.5" height="1.5" rx="0.3" fill="#2C353D" />
  <rect x="15.25" y="15.5" width="1.5" height="1.5" rx="0.3" fill="#2C353D" />
  <rect x="18" y="15.5" width="1.5" height="1.5" rx="0.3" fill="#2C353D" />
  
  <!-- Event Ticket -->
  <path d="M20.5 19.5H11.5C11.5 19.5 12.5 21 16 21C19.5 21 20.5 19.5 20.5 19.5Z" fill="#A39684" />
  
  <!-- Gradient Definition -->
  <defs>
    <linearGradient id="gradient" x1="16" y1="5" x2="16" y2="27" gradientUnits="userSpaceOnUse">
      <stop offset="0" stop-color="#2C353D" />
      <stop offset="1" stop-color="#1A2027" />
    </linearGradient>
  </defs>
</svg>
