<?xml version="1.0" encoding="UTF-8"?>
<svg width="512" height="512" viewBox="0 0 512 512" fill="none" xmlns="http://www.w3.org/2000/svg">
  <!-- Background Circle -->
  <circle cx="256" cy="256" r="240" fill="#1A2027" />
  
  <!-- Outer Ring -->
  <circle cx="256" cy="256" r="220" stroke="#A39684" stroke-width="8" fill="none" />
  
  <!-- Middle Ring with Gradient -->
  <circle cx="256" cy="256" r="180" fill="url(#gradient)" />
  
  <!-- Inner Circle -->
  <circle cx="256" cy="256" r="140" fill="#2C353D" />
  
  <!-- Calendar Icon -->
  <rect x="186" y="156" width="140" height="140" rx="12" fill="#E5D6B9" />
  <rect x="186" y="156" width="140" height="30" rx="8" fill="#A39684" />
  
  <!-- Calendar Details -->
  <rect x="206" y="206" width="20" height="20" rx="4" fill="#2C353D" />
  <rect x="246" y="206" width="20" height="20" rx="4" fill="#2C353D" />
  <rect x="286" y="206" width="20" height="20" rx="4" fill="#2C353D" />
  <rect x="206" y="246" width="20" height="20" rx="4" fill="#2C353D" />
  <rect x="246" y="246" width="20" height="20" rx="4" fill="#2C353D" />
  <rect x="286" y="246" width="20" height="20" rx="4" fill="#2C353D" />
  
  <!-- Event Ticket -->
  <path d="M326 316H186C186 316 196 336 256 336C316 336 326 316 326 316Z" fill="#A39684" />
  
  <!-- Gradient Definition -->
  <defs>
    <linearGradient id="gradient" x1="256" y1="76" x2="256" y2="436" gradientUnits="userSpaceOnUse">
      <stop offset="0" stop-color="#2C353D" />
      <stop offset="1" stop-color="#1A2027" />
    </linearGradient>
  </defs>
</svg>
